# xmcd CD database file
#
# Track frame offsets:
#	150
#	20174
#	37587
#	60979
#	78778
#	97801
#	118995
#	139667
#	162226
#	178127
#	205682
#	224418
#	247762
#	275227
#	302043
#
# Disc length: 4254 seconds
#
# Revision: 0
# Processed by: cddbd v1.5.2PL0 Copyright (c) Steve Scherf et al.
# Submitted via: CDex 1.77
#
DISCID=c7109c0f
DTITLE=Simone Kopmajer - The Collection
DYEAR=2016
DGENRE=Jazz
TTITLE0=Forgetting To Breathe
TTITLE1=Ghost In This House
TTITLE2=All The Words Are Gone
TTITLE3=All You Need Is Love
TTITLE4=Blue Bayou
TTITLE5=What's going On
TTITLE6=Tennessee Walz
TTITLE7=Imagine
TTITLE8=Inseparable
TTITLE9=Time
TTITLE10=Stay
TTITLE11=Everything Must Change
TTITLE12=Wichita Lineman
TTITLE13=A Perfect Love
TTITLE14=Baubles, Bangles and Beads
EXTD=YEAR: 2016
EXTT0=
EXTT1=
EXTT2=
EXTT3=
EXTT4=
EXTT5=
EXTT6=
EXTT7=
EXTT8=
EXTT9=
EXTT10=
EXTT11=
EXTT12=
EXTT13=
EXTT14=
PLAYORDER=
